<?xml version="1.0" standalone="no"?>
<!DOCTYPE svg PUBLIC "-//W3C//DTD SVG 20010904//EN"
 "http://www.w3.org/TR/2001/REC-SVG-20010904/DTD/svg10.dtd">
<svg version="1.0" xmlns="http://www.w3.org/2000/svg"
 width="400.000000pt" height="400.000000pt" viewBox="0 0 400.000000 400.000000"
 preserveAspectRatio="xMidYMid meet">
<metadata>
Created by potrace 1.14, written by Peter Selinger 2001-2017
</metadata>
<g transform="translate(0.000000,400.000000) scale(0.100000,-0.100000)"
fill="#000000" stroke="none">
<path d="M1543 2759 c-51 -9 0 18 -538 -291 -324 -186 -460 -270 -487 -299
-90 -98 -86 -251 9 -341 29 -28 834 -499 938 -549 99 -48 199 -37 276 30 108
92 117 260 20 358 -22 22 -146 100 -290 182 -138 79 -254 147 -256 151 -2 4
114 75 258 158 332 191 361 221 361 357 0 49 -5 81 -18 105 -23 45 -73 97
-109 117 -40 20 -114 30 -164 22z"/>
<path d="M2375 2751 c-147 -36 -226 -175 -184 -325 20 -73 74 -115 354 -278
145 -84 335 -195 422 -246 228 -134 267 -152 336 -152 70 0 112 16 167 66 61
55 80 99 80 184 0 81 -18 126 -72 177 -43 41 -929 552 -987 570 -48 14 -70 15
-116 4z"/>
</g>
</svg>
